<svg version="1.2" xmlns="http://www.w3.org/2000/svg" viewBox="0 0 33 44" width="512" height="512">
	<style>
		.s0 { fill: #c92071 } 
		.s1 { opacity: .12;fill: #c92071 } 
	</style>
	<path class="s0" d="m4.97 5.05c-1.22 0.2-2.33 0.78-3.22 1.67-0.66 0.67-0.94 1.08-1.3 1.93-0.48 1.09-0.45 0.4-0.45 12.8 0 12.14-0.01 11.66 0.38 12.69q0.39 1.07 1.26 1.97c0.83 0.87 1.73 1.39 2.91 1.71l0.57 0.15 10.95 0.03c7.8 0.01 11.15 0 11.63-0.06 1.43-0.16 2.59-0.71 3.58-1.69 0.73-0.72 1.16-1.43 1.52-2.49l0.2-0.58v-11.65-11.66l-0.16-0.54c-0.57-1.99-2.07-3.49-4.1-4.13l-0.62-0.19-11.4-0.01c-6.27-0.01-11.56 0.02-11.75 0.05zm7.32 12.36c2.31 2.22 4.19 4.06 4.18 4.09-0.01 0.03-1.92 1.87-4.23 4.1l-4.22 4.05-1.09-1.05c-0.6-0.57-1.09-1.08-1.09-1.11 0-0.04 1.4-1.4 3.1-3.02 1.68-1.62 3.07-2.96 3.08-2.99 0-0.02-1.39-1.38-3.09-3.01-1.7-1.63-3.09-2.98-3.09-3 0-0.09 2.1-2.13 2.17-2.12 0.05 0.01 1.97 1.84 4.28 4.06zm14.98 10.97v1.27h-3.99-3.98v-1.27-1.27h3.98 3.99z"/>
	<path class="s1" d="m52.58 35h-8.97v-26.47h9.15q3.94 0 6.77 1.59 2.85 1.58 4.37 4.54 1.53 2.96 1.53 7.08 0 4.14-1.54 7.11-1.53 2.97-4.41 4.56-2.87 1.59-6.9 1.59zm-4.17-4.15h3.94q2.76 0 4.61-1.01 1.85-1.02 2.78-3.03 0.93-2.03 0.93-5.07 0-3.04-0.93-5.04-0.93-2.02-2.75-3.01-1.81-1.01-4.5-1.01h-4.08zm21 4.15v-19.85h4.68v19.85zm2.35-22.67q-1.11 0-1.91-0.74-0.8-0.75-0.8-1.79 0-1.06 0.8-1.8 0.8-0.75 1.91-0.75 1.13 0 1.92 0.75 0.8 0.74 0.8 1.8 0 1.04-0.8 1.79-0.79 0.74-1.92 0.74zm15.41 30.53q-2.52 0-4.33-0.69-1.81-0.67-2.91-1.81-1.1-1.14-1.52-2.52l4.21-1.02q0.28 0.58 0.83 1.15 0.54 0.58 1.46 0.96 0.93 0.39 2.34 0.38 1.99 0 3.29-0.96 1.31-0.96 1.31-3.16v-3.76h-0.23q-0.37 0.72-1.06 1.49-0.69 0.76-1.83 1.28-1.12 0.51-2.83 0.51-2.28 0-4.15-1.07-1.84-1.08-2.94-3.23-1.09-2.16-1.09-5.4 0-3.27 1.09-5.52 1.1-2.26 2.96-3.43 1.86-1.17 4.15-1.17 1.74 0 2.87 0.59 1.13 0.58 1.81 1.41 0.67 0.82 1.02 1.54h0.25v-3.28h4.62v20.17q0 2.55-1.22 4.21-1.21 1.67-3.32 2.5-2.1 0.83-4.78 0.83zm0.04-11.82q1.49 0 2.53-0.72 1.05-0.72 1.59-2.08 0.54-1.36 0.54-3.26 0-1.87-0.54-3.28-0.53-1.41-1.58-2.19-1.03-0.78-2.54-0.78-1.56 0-2.61 0.81-1.05 0.82-1.58 2.24-0.53 1.41-0.53 3.2 0 1.82 0.53 3.19 0.54 1.36 1.59 2.12 1.06 0.75 2.6 0.75zm13.71 3.96v-19.85h4.68v19.85zm2.35-22.67q-1.11 0-1.91-0.74-0.8-0.75-0.8-1.79 0-1.06 0.8-1.8 0.8-0.75 1.91-0.75 1.13 0 1.91 0.75 0.8 0.74 0.8 1.8 0 1.04-0.8 1.79-0.78 0.74-1.91 0.74zm16.69 2.82v3.62h-11.42v-3.62zm-8.59-4.76h4.68v18.64q0 0.94 0.28 1.44 0.3 0.5 0.78 0.68 0.48 0.18 1.06 0.18 0.44 0 0.8-0.07 0.37-0.06 0.57-0.11l0.79 3.65q-0.38 0.13-1.08 0.29-0.68 0.15-1.68 0.18-1.75 0.05-3.16-0.53-1.41-0.59-2.24-1.84-0.81-1.24-0.8-3.1zm17.86 25.01q-1.89 0-3.4-0.67-1.5-0.69-2.38-2.02-0.87-1.33-0.87-3.28 0-1.68 0.62-2.78 0.62-1.1 1.7-1.76 1.07-0.66 2.41-0.99 1.36-0.35 2.81-0.51 1.74-0.18 2.83-0.32 1.08-0.15 1.57-0.46 0.51-0.33 0.51-1v-0.08q0-1.46-0.87-2.26-0.86-0.8-2.49-0.8-1.72 0-2.73 0.75-0.99 0.75-1.34 1.77l-4.37-0.62q0.52-1.81 1.7-3.02 1.19-1.23 2.91-1.84 1.72-0.62 3.8-0.62 1.44 0 2.86 0.34 1.42 0.33 2.6 1.11 1.17 0.76 1.88 2.08 0.73 1.32 0.73 3.29v13.29h-4.5v-2.73h-0.16q-0.42 0.83-1.2 1.55-0.76 0.72-1.92 1.15-1.15 0.43-2.7 0.43zm1.21-3.44q1.41 0 2.44-0.55 1.04-0.57 1.59-1.5 0.57-0.93 0.57-2.03v-2.34q-0.22 0.18-0.75 0.34-0.51 0.15-1.16 0.27-0.65 0.11-1.28 0.2-0.63 0.09-1.1 0.16-1.05 0.14-1.87 0.46-0.83 0.33-1.31 0.91-0.48 0.57-0.48 1.47 0 1.3 0.95 1.95 0.94 0.66 2.4 0.66zm18.29-23.43v26.47h-4.68v-26.47zm27.7 7.28q-0.18-1.7-1.53-2.64-1.33-0.94-3.46-0.94-1.5 0-2.57 0.45-1.07 0.45-1.64 1.23-0.57 0.77-0.58 1.77 0 0.83 0.37 1.43 0.39 0.61 1.05 1.04 0.66 0.41 1.46 0.7 0.8 0.28 1.61 0.47l2.49 0.62q1.49 0.35 2.88 0.95 1.39 0.59 2.49 1.5 1.11 0.9 1.76 2.18 0.65 1.28 0.65 3 0 2.33-1.19 4.1-1.19 1.75-3.44 2.75-2.24 0.98-5.42 0.98-3.09 0-5.36-0.96-2.26-0.95-3.54-2.79-1.27-1.83-1.37-4.47h4.72q0.1 1.38 0.85 2.3 0.75 0.92 1.95 1.37 1.22 0.45 2.71 0.45 1.57 0 2.74-0.46 1.19-0.48 1.87-1.32 0.67-0.85 0.68-1.99-0.01-1.03-0.61-1.71-0.59-0.68-1.66-1.13-1.06-0.47-2.49-0.83l-3.01-0.78q-3.27-0.84-5.17-2.54-1.88-1.72-1.88-4.56 0-2.34 1.26-4.1 1.28-1.76 3.48-2.73 2.2-0.98 4.98-0.98 2.81 0 4.93 0.98 2.14 0.97 3.35 2.7 1.22 1.72 1.25 3.96zm18.6-0.66v3.62h-11.42v-3.62zm-8.59-4.76h4.68v18.64q0 0.94 0.28 1.45 0.3 0.49 0.78 0.67 0.48 0.18 1.06 0.18 0.44 0 0.8-0.06 0.37-0.07 0.57-0.12l0.79 3.66q-0.38 0.13-1.08 0.28-0.68 0.16-1.68 0.18-1.75 0.05-3.16-0.53-1.41-0.59-2.24-1.83-0.81-1.24-0.8-3.1zm20.59 24.99q-2.91 0-5.04-1.28-2.13-1.28-3.31-3.58-1.16-2.3-1.16-5.38 0-3.07 1.16-5.38 1.18-2.32 3.31-3.6 2.13-1.28 5.04-1.28 2.91 0 5.04 1.28 2.13 1.28 3.3 3.6 1.17 2.31 1.17 5.38 0 3.08-1.17 5.38-1.17 2.3-3.3 3.58-2.13 1.28-5.04 1.28zm0.03-3.75q1.57 0 2.63-0.86 1.06-0.88 1.58-2.36 0.53-1.47 0.53-3.28 0-1.82-0.53-3.29-0.52-1.49-1.58-2.37-1.06-0.88-2.63-0.88-1.62 0-2.69 0.88-1.06 0.88-1.59 2.37-0.52 1.47-0.52 3.29 0 1.81 0.52 3.28 0.53 1.48 1.59 2.36 1.07 0.86 2.69 0.86zm13.09 3.36v-19.85h4.54v3.31h0.2q0.55-1.72 1.86-2.65 1.34-0.94 3.04-0.94 0.39 0 0.87 0.04 0.49 0.02 0.81 0.09v4.3q-0.3-0.1-0.94-0.18-0.64-0.09-1.23-0.09-1.28 0-2.3 0.55-1.01 0.55-1.59 1.52-0.58 0.97-0.58 2.23v11.67zm22.03 0.39q-2.98 0-5.15-1.24-2.16-1.25-3.32-3.54-1.17-2.3-1.17-5.42 0-3.06 1.17-5.37 1.17-2.33 3.28-3.62 2.11-1.31 4.95-1.31 1.83 0 3.46 0.6 1.64 0.58 2.9 1.81 1.26 1.22 1.99 3.12 0.72 1.89 0.72 4.5v1.44h-16.27v-3.16h11.79q-0.02-1.34-0.58-2.39-0.57-1.06-1.59-1.67-1.01-0.6-2.36-0.6-1.43 0-2.52 0.7-1.08 0.68-1.69 1.8-0.59 1.12-0.61 2.45v2.75q0 1.73 0.64 2.97 0.63 1.23 1.77 1.89 1.13 0.65 2.66 0.65 1.02 0 1.85-0.29 0.82-0.3 1.43-0.86 0.61-0.57 0.92-1.41l4.37 0.49q-0.42 1.73-1.58 3.02-1.15 1.28-2.95 1.99-1.79 0.7-4.11 0.7z"/>
</svg>